<?xml version="1.0" encoding="utf-8"?>
<svg xmlns="http://www.w3.org/2000/svg" viewBox="0 0 620 80">
  <defs>
    <linearGradient id="textGradient" x1="0%" y1="0%" x2="0%" y2="100%">
      <stop offset="0%" stop-color="#3b82f6"/>
      <stop offset="100%" stop-color="#06b6d4"/>
    </linearGradient>
    <filter id="textShadow" x="-20%" y="-20%" width="140%" height="140%">
      <feOffset in="SourceAlpha" dx="0" dy="1" result="off"/>
      <feGaussianBlur in="off" stdDeviation="1.5" result="blur"/>
      <feColorMatrix in="blur" type="matrix" values="0 0 0 0 0  0 0 0 0 0  0 0 0 0 0  0 0 0 0.3 0" result="shadow"/>
      <feMerge>
        <feMergeNode in="shadow"/>
        <feMergeNode in="SourceGraphic"/>
      </feMerge>
    </filter>
  </defs>
  <g transform="matrix(0.07, 0, 0, 0.07, 4, 2)" style="">
    <path fill="#D3783D" d="M881.027 1046.931c-4.05.037-8.101.073-12.713-.38-2.258-.836-3.954-1.482-5.65-1.483q-102.532-.082-205.063-.009c-1.882.002-3.762.667-5.643 1.023-11.354.342-22.708.685-34.826.653-13.305-.478-25.845-.592-38.386-.647-.57-.002-1.142.54-1.713.83-16.245-.298-32.214-2.6-47.862-6.927-10.164-2.81-20.238-5.949-30.84-9.357-11.116-5.99-22.383-10.631-32.207-17.375-12.49-8.574-24.188-18.43-35.496-28.552-6.835-6.118-12.283-13.787-18.51-20.988-.464-.41-.773-.59-1.09-.74-.008.03.037-.012.041-.318a6.7 6.7 0 0 0-1.044-1.69c-.022.025.043.007.015-.294-.36-.788-.69-1.275-1.137-2.05-.98-1.416-1.846-2.545-2.802-3.981a26 26 0 0 0-2.072-2.672c-.011.033.042-.013-.003-.328-.691-1.112-1.338-1.908-1.997-2.672-.011.033.042-.012-.006-.347-1.025-1.785-2.002-3.235-3-4.659-.02.026.045.014.017-.286a8.6 8.6 0 0 0-1.016-1.706c-.009.03.042-.009-.02-.341-1.03-1.786-1.998-3.24-2.978-4.66-.01.031.042-.01-.012-.367-2.692-5.458-5.329-10.559-7.983-15.63-.018.03.041-.007.024-.386a226 226 0 0 0-3.64-9.63c-8.69-21.488-14.515-43.684-16.248-67.086-.446-3.777-1.189-7.29-2.004-11.21-.143-1.792-.213-3.174.033-4.848.478-1.595.81-2.902.776-4.2a3464 3464 0 0 0-1.01-32.346c-.027-.747-.578-1.475-.914-2.564.012-.82.053-1.289.472-1.841.375-3.71.372-7.337.397-11.418 2.027-15.445 4.026-30.436 6.044-45.748.03-.746.04-1.174.271-1.727.398-.405.575-.684.764-1.335.023-1.119.033-1.864.292-2.78.412-.736.574-1.302.745-2.198-.005-.767-.017-1.205.25-1.853.465-1.12.65-2.032 1.025-3.245 6.336-17.481 12.063-34.825 18.733-51.798 8.417-21.418 19.719-41.467 32.63-60.436 10.535-15.48 21.747-30.624 33.947-44.81 11.982-13.931 25.587-26.467 38.48-39.615 26.22-19.891 52.404-39.83 78.678-59.651 11.534-8.702 23.25-17.163 33.766-24.91-2.946-17.037-5.757-33.292-8.217-50.28.459-5.81.715-10.888.629-15.96-.08-4.686-.526-9.365-.811-14.047 1.612-29.246 9.351-56.861 22.126-83.136.726-1.493 1.181-3.208 2.21-4.447 5.643-6.8 4.59-13.704 2.148-21.677-9.546-31.177-14.17-63.205-13.41-95.826.434-18.624 2.204-37.204 9.887-54.577 5.105-11.546 12.034-21.484 24.673-25.918 9.152-3.212 18.153-1.083 26.91 1.376 27.482 7.719 51.651 21.724 73.698 39.66 22.257 18.106 40.256 39.68 53.405 65.204 1.374 2.666 2.793 3.208 5.71 3.18 41.249-.39 82.065 2.383 120.955 17.929 47.039 18.804 77.623 53.04 93.675 100.625 3.757 11.136 6.4 22.644 9.707 33.937 5.179 17.689 15.289 32.752 25.693 47.635 8.353 11.949 15.487 24.379 17.482 39.205 2.275 16.905-.375 33.232-6.12 48.996-16.893 46.36-48.952 76.161-97.682 86.148-12.713 2.605-26.138 1.733-40.022 2.31-3.915-.327-7.045-.507-10.437-.742-.436-.097-.61-.138-.792-.565-.77-1.048-1.452-2.139-2.308-2.297-3.075-.57-6.217-.761-9.317-1.21-24.435-3.534-48.123-10.214-71.738-17.166-6.172-1.817-12.246-3.983-18.313-6.134-2.567-.91-3.404-.02-3.63 2.473-3.111 5.592-6.801 10.878-8.474 16.74-5.377 18.847-8.777 38.08-6.07 57.78.88 6.416-.172 14.114 8.182 17.577 1.085.385 1.877.645 2.824 1.214 2.418 1.4 4.68 2.492 6.953 3.941.898 1.26 1.623 2.559 2.699 2.998 9.796 3.997 19.433 8.614 29.557 11.512 9.444 2.704 19.372 4.33 29.184 4.987 12.212.816 24.546.594 36.781-.046 6.956-.364 13.841-2.364 20.706-3.865 1.15-.252 2.035-1.718 3.365-2.807 2.625-.887 4.926-1.59 7.227-2.292 9.383-1.919 18.684-4.687 28.164-5.595 27.097-2.597 53.251.486 75.741 17.571 14.985 11.384 24.21 26.424 24.508 45.807.339 22.123-19.098 38.52-40.934 34.151-12.8-2.562-25.25-6.882-38.049-9.46-13.934-2.806-28.074-2.792-42.846.493-2.883.274-5.008.286-7.41.003-4.486.19-8.898.025-12.87 1.268-21.2 6.634-42.915 9.92-65.05 9.871-13.406-.03-26.826-.988-40.208-1.963-7.564-.55-15.063-1.98-22.842-3.273-12.04-3.663-23.81-7.145-35.646-10.377-1.533-.419-3.418.452-5.459.584-16.986-9.727-34.498-17.167-53.58-20.271-16.16-2.63-32.534-3.118-48.509.33-11.743 2.535-23.028 7.228-34.47 11.097-1.977.668-3.72 2.024-5.92 3.257 13.077.942 25.379 1.255 37.514 2.843 16.367 2.141 32.826 4.344 48.847 8.183 23.368 5.6 43.892 17.082 60.708 34.542 10.987 11.408 20.099 24.101 27.59 38.19 9.062 17.039 14.391 35.174 15.771 54.044 1.082 14.783.1 29.938-1.882 44.67-2.89 21.482-10.963 41.313-23.89 58.953-2.568 3.503-5.141 7.001-7.711 10.502l.614.867c3.765-1.04 7.53-2.079 11.56-2.803 5.68.126 11.095-.187 16.512-.227 11.625-.085 23.252.032 34.876-.097 1.818-.02 3.626-.895 5.831-1.33 4.397-.529 8.4-1.104 12.64-1.676.236.003.697-.1.697-.1l.47.03c14.954-1.435 29.882-1.328 44.686 1.376 23.622 4.315 44.608 13.279 58.135 34.552 5.916 9.304 8.596 19.613 6.359 30.501-2.796 13.602-14.143 21.672-31.458 22.436-20.26-.472-39.8-.583-59.339-.642-.569-.002-1.14.552-1.71.846m39.612-666.198 1.53-3.449s.144.03.546.022c.215-.18.455-.31 1.519-.41.855-1.69 1.71-3.38 2.352-5.159 0 0-.094-.211.627-.256.336-.35.827-.642.985-1.059 5.998-15.845 4.632-31.288-2.752-46.32-.459-.935-1.963-1.356-3.413-2.476-1.68-2.053-3.207-4.257-5.063-6.137-16.232-16.44-42.923-12.179-53.022 8.518 0 0-.03-.118-.535.226-.192.57-.383 1.142-.464 1.769 0 0-.054-.112-.626.3-5.502 10.38-6.529 21.536-4.777 32.85 1.592 10.284 5.415 19.768 13.553 27.453.185.253.433.403 1.089.982.565.202 1.13.404 1.613.598 0 0 0 .082.18.715 11.855 9.22 28.983 8.943 38.218-.64 0 0-.015-.02.685.038 2.414-2.406 4.828-4.813 7.16-7.306 0 0 .034.115.595-.259"/>
    <path fill="#9B4D21" d="M373.004 720.017c.012.439.024.877-.27 1.677-.436 1.019-.565 1.677-.695 2.335-.01.746-.02 1.491-.268 2.726-.412.775-.585 1.06-.76 1.345-.01.427-.02.855-.42 1.673-.735.724-1.347 1.024-1.39 1.393-2.431 20.254-4.852 40.51-7.128 60.781-.184 1.64.663 3.395 1.003 5.552-.007 4.122.014 7.789-.277 11.727-.45 2.573-.85 4.895-.674 7.172.494 6.425 1.074 12.851 1.895 19.242 1.452 11.3 2.45 22.717 4.855 33.822 2.59 11.958 6.232 23.728 10.106 35.35 1.886 5.657 5.345 10.79 8.091 16.16 0 0-.059.036-.06.403 2.685 5.442 5.37 10.516 8.056 15.59 0 0-.052.041-.05.384 1.018 1.768 2.033 3.193 3.048 4.618 0 0-.05.04-.034.32.356.751.696 1.223 1.036 1.695 0 0-.065.012-.057.36 1.026 1.772 2.043 3.196 3.06 4.62 0 0-.053.045-.051.376.685 1.095 1.368 1.86 2.05 2.623 0 0-.052.046-.05.384.726 1.094 1.449 1.852 2.171 2.609.866 1.128 1.731 2.257 2.726 3.988.47 1.08.81 1.558 1.151 2.036 0 0-.065.018-.04.3.363.752.7 1.22 1.037 1.689 0 0-.045.042.087.264.462.387.792.552 1.122.717 6.07 6.972 11.519 14.64 18.354 20.759 11.308 10.121 23.006 19.978 35.496 28.552 9.824 6.744 21.091 11.385 31.813 17.3-1.668.699-3.438 1.394-5.196 1.367-18.813-.292-37.728.44-56.415-1.281-61.469-5.66-118.718-23.654-168.352-61.708-44.853-34.389-73.891-79.227-85.798-134.558-6.333-29.428-7.58-59.232-3.953-89.308 6.976-57.848 29.476-109.672 60.873-157.92 13.865-21.307 29.672-41.342 44.286-62.173 19.085-27.202 38.607-54.2 49.113-86.296 1.29-3.944 2.334-7.97 3.449-11.97.121-.434-.041-.947-.056-1.17-6.238 8.185-12.13 16.838-18.942 24.692-29.356 33.845-64.368 59.245-108.89 68.859-68.653 14.824-136.824-12.205-174.313-76.211-18.881-32.237-26.136-67.23-24.277-104.252 2.956-58.855 23.454-111.753 56.322-159.955 42.3-62.033 98.84-106.205 169.492-132.131C280.626 29.904 327.33 26 375.143 30.315c45 4.062 86.045 19.038 123.428 43.958 33.012 22.006 60.413 49.547 79.319 84.864 11.635 21.734 18.66 44.941 22.021 69.323 7.187 52.116-2.601 101.787-21.389 150.207-16.096 41.486-38.13 79.69-63.767 115.918-5.373 7.593-10.834 15.124-16.209 22.716-.347.49-.309 1.255-.45 2.247-12.891 13.504-26.496 26.04-38.478 39.972-12.2 14.185-23.412 29.33-33.947 44.809-12.911 18.97-24.213 39.018-32.63 60.436-6.67 16.973-12.397 34.317-19.013 52.02-.656 1.428-.84 2.33-1.024 3.232"/>
    <path fill="#623C24" d="M864.557 957.571c-.202.291-.673.26-.673.26s-.46.104-.954-.179c-2.705-.51-4.917-.738-6.93-.944 2.735-3.994 5.376-7.849 8.248-11.827.383-.432.536-.74.704-.988.015.06-.109.061.151-.042.452-.414.644-.724.85-.964.013.071-.131.073.144-.063.452-.495.628-.855.83-1.399.15-.433.35-.56 1.006-.544 1.905-1.985 3.431-3.99 5.212-6.042.44-.324.627-.6 1.129-.983.771-1.041 1.227-1.977 1.926-2.99.389-.372.535-.666 1.032-.95 1.504-1.285 2.659-2.582 4.108-4.038 1.076-1.74 1.857-3.319 3-4.919 1.119-1.7 1.876-3.38 2.63-5.263.063-.494.235-.69.917-.796.916-1.042 1.429-2.08 1.934-3.065-.009.055-.093-.018.272.013 2.186-2.952 4.007-5.935 6.119-9.026.447-.688.602-1.267 1.12-1.876.75-1.044 1.14-2.058 1.825-3.168.466-.664.637-1.232 1.167-1.816 2.113-3.347 3.867-6.678 5.961-10.123.76-1.388 1.182-2.661 1.905-4.033.448-.685.596-1.273 1.032-1.985.422-.715.555-1.306 1.047-1.904 1.014-.705 1.92-1.291 2.289-2.117 3.787-8.463 7.86-16.824 11.138-25.484 8.224-21.726 15.33-43.81 18.998-66.84 1.897-11.917 3.705-23.852 5.282-35.814.95-7.211 1.292-14.501 2.144-21.728.122-1.037 1.574-1.916 2.41-2.868.809.975 2.275 1.935 2.298 2.929.061 2.617-.508 5.248-.82 7.875-1.953 16.405-3.95 32.805-5.781 49.223-.18 1.62.657 3.355 1.023 5.036-6.122 33.146-16.924 64.695-32.03 94.823-13.755 27.433-31.87 51.743-52.663 74.62"/>
    <path fill="#5B3C27" d="M947.937 627.663c.146.495.293.99.061 2.066.031 1.79.441 3 .85 4.211.226.392.45.784.25 1.668-2.376 1.147-4.327 1.802-6.165 2.42L925.749 556.6c6.224-1.4 6.263 2.791 7.229 6.136.334 1.158 1.1 2.19 1.668 3.28 4.429 20.265 8.857 40.531 13.298 61.241.013.445-.007.406-.007.406"/>
    <path fill="#442A1D" d="M949.434 787.804c-.55-1.356-1.388-3.09-1.207-4.71 1.831-16.42 3.828-32.82 5.78-49.224.313-2.627.882-5.258.821-7.875-.023-.994-1.49-1.954-2.298-2.93-.836.953-2.288 1.832-2.41 2.869-.852 7.227-1.194 14.517-2.144 21.728-1.577 11.962-3.385 23.897-5.282 35.814-3.667 23.03-10.774 45.114-18.998 66.84-3.278 8.66-7.351 17.021-11.138 25.484-.37.826-1.275 1.412-2.35 2.064-.42-.045-.543-.15-.458-.454.238-.91.393-1.518.816-2.325.617-1.021.965-1.842 1.453-2.853.301-.636.462-1.082.853-1.797 3.082-7.057 5.932-13.844 8.973-20.95 16.228-41.194 24.225-83.682 25.953-127.492.568-.328.905-.639 1.241-.95 2.124-.012 4.249-.024 6.674-.117-.637 13.43-1.364 26.962-2.588 40.448-.793 8.735-2.313 17.405-3.691 26.43"/>
    <path fill="#CD5E29" d="M652.424 1046.162c1.415-.436 3.295-1.101 5.177-1.103q102.53-.073 205.063.009c1.696.001 3.392.647 5.196 1.37-18.682.157-37.47-.23-56.26-.252-52.903-.062-105.806.027-159.176-.024"/>
    <path fill="#40291C" d="M934.625 565.612c-.547-.686-1.313-1.718-1.647-2.876-.966-3.345-1.005-7.536-7.23-6.136l17.185 81.427c1.838-.617 3.79-1.272 6.114-2.078.459.343.546.836.586 1.579-2.347.953-4.648 1.655-7.592 2.493-.85.08-1.057.027-1.243-.432-5.17-23.872-10.364-47.338-15.597-71.197-.354-1.796-.67-3.198-1.011-4.992-.348-1.792-.669-3.193-1.02-4.975a303 303 0 0 1-.157-3.43c3.13.178 6.26.358 9.711.737.84 3.292 1.36 6.384 1.9 9.88"/>
    <path fill="#C76026" d="M881.49 1047.002c.107-.365.678-.919 1.247-.917 19.54.059 39.078.17 58.92.554-19.7.33-39.702.382-60.168.363"/>
    <path fill="#C75F27" d="M577.494 1046.993c.11-.364.682-.907 1.252-.905 12.54.055 25.08.17 37.923.555-12.703.33-25.708.378-39.175.35"/>
    <path fill="#C9561E" d="M602.08 355.517c.348 4.221.795 8.9.874 13.586.086 5.072-.17 10.15-.55 15.532-.31-9.348-.349-19.002-.324-29.118"/>
    <path fill="#40291C" d="M948.924 633.705a10 10 0 0 1-1.015-3.595c.556.987.823 2.173 1.015 3.595M948.033 627.556c-.096.107-.076.146-.09.167-.014.02.365-.072.365-.072s-.178-.202-.275-.095"/>
    <path fill="#BB642F" d="m793.064 960.947-11.296 3.118-.614-.867c2.57-3.5 5.143-7 7.71-10.502 12.928-17.64 21-37.471 23.89-58.952 1.983-14.733 2.965-29.888 1.883-44.671-1.38-18.87-6.71-37.005-15.77-54.044-7.492-14.089-16.604-26.782-27.59-38.19-16.817-17.46-37.341-28.943-60.709-34.542-16.021-3.839-32.48-6.042-48.847-8.183-12.135-1.588-24.437-1.901-37.513-2.843 2.199-1.233 3.942-2.589 5.918-3.257 11.443-3.869 22.728-8.562 34.471-11.097 15.975-3.448 32.348-2.96 48.51-.33 19.081 3.104 36.593 10.544 53.69 20.494.636.64.902.831 1.255 1.284 2.447 1.966 4.867 3.585 7.283 5.264-.004.059-.12.04-.023.38.75.518 1.404.698 2.232.914.405.154.542.34.569.976 4.458 4.571 8.932 8.762 13.587 13.169 1.024.972 1.867 1.728 2.834 2.713.251.552.38.875.259 1.38.573 1.066 1.395 1.949 2.217 3.198 1.332 1.789 2.665 3.212 4 5.004 1.662 2.46 3.325 4.55 4.99 7.009.746 1.06 1.489 1.753 2.227 2.485-.004.038-.062-.013-.114.368 1.269 2.182 2.59 3.983 3.978 5.926.066.142.011.451.055.73.29.555.534.829.85 1.28.072.177.082.56.146.828.324.517.584.765.909 1.17.065.157.04.495.112.783.378.524.683.76.946.978-.043-.018.026-.078-.015.311.343 1.643.619 2.942 1.129 4.141 4.02 9.455 8.991 18.618 11.944 28.391 5.757 19.052 6.368 38.806 4.676 58.524-1.487 17.337-7.138 33.641-13.912 49.574-1.14 2.679-1.85 5.539-2.777 8.26-.019-.055.087-.006-.26.083-1.82 3.369-3.294 6.647-4.746 9.888.023-.038.044.047-.328.044-1.143 1.666-1.915 3.334-2.666 4.96.022-.043.044.05-.314.038-4.164 5.973-7.97 11.957-11.808 17.914-.032-.026.05-.008-.192.096-.417.401-.591.698-.74.961.025-.033.075.034-.266.012-.819.96-1.297 1.943-1.782 3.23.006.712.018 1.118.026 1.544z"/>
    <path fill="#30353C" d="M871.842 387.055c-.31-.047-.558-.197-.806-1.038-.996-2.483-1.611-4.637-2.913-6.23-9.116-11.15-10.058-24.178-8.582-37.635.6-5.477 2.206-10.845 3.354-16.262 0 0 .054.112.288-.054.4-.76.568-1.353.735-1.947 0 0 .03.118.337.064 2.878-2.613 5.525-5.1 8.007-7.742 15.283-16.27 40.455-10.47 50.738 11.152 5.117 10.758 5.453 22.11 4.711 33.855-1.99 5.511-3.694 10.804-5.398 16.096 0 0-.144-.03-.471-.014-.806 1.28-1.285 2.543-1.764 3.807 0 0-.034-.115-.349-.073-2.724 2.43-5.134 4.818-7.545 7.205 0 0 .015.02-.357-.039-1.585.425-2.828.85-4.01 1.403-9.979 4.68-19.916 5.02-29.878-.097-1.26-.646-2.754-.837-4.139-1.24 0 0 .001-.08-.08-.378-.68-.476-1.28-.655-1.878-.833"/>
    <path fill="#CB632B" d="M940.776 639.994c.208.054.416.108.942.211-.688.954-1.573 2.42-2.723 2.672-6.865 1.5-13.75 3.501-20.706 3.865-12.235.64-24.569.862-36.78.046-9.813-.657-19.74-2.283-29.185-4.987-10.124-2.898-19.761-7.515-29.557-11.512-1.076-.44-1.801-1.739-2.663-3.038.026-.4.098-.48.432-.383 2.2.978 4.065 1.858 6.197 2.96 17.308 9.15 35.646 13.455 54.656 14.971 20.021 1.596 39.819-.385 59.387-4.805"/>
    <path fill="#C5602C" d="M948.761 720.748c-.058.606-.395.917-1.35 1.12-.89-.1-1.162-.094-1.84-.065-3.58.807-6.77 1.522-9.92 2.388-24.792 6.813-49.988 11.003-75.741 9.924-15.32-.641-30.585-2.585-46.115-4-.24-.056-.724-.138-.826-.373-.394-.343-.687-.45-1.33-.613-1.447-.447-2.542-.84-3.632-1.479.006-.247.035-.74.035-.74 7.528 1.034 15.027 2.463 22.59 3.014 13.383.975 26.803 1.934 40.209 1.963 22.135.05 43.85-3.237 65.05-9.871 3.972-1.243 8.384-1.079 12.87-1.268"/>
    <path fill="#CB632B" d="M816.997 529.998c-.118-2.451.72-3.343 3.286-2.432 6.067 2.151 12.141 4.317 18.313 6.134 23.615 6.952 47.303 13.632 71.738 17.166 3.1.449 6.242.64 9.317 1.21.856.158 1.539 1.25 1.9 2.341-3.753.085-7.105-.258-10.468-.573-.012.028.039.06-.188-.29-2.153-.658-4.085-.932-6.004-1.278-7.964-1.433-15.923-2.888-23.889-4.307-.005.029.048.006-.166-.31-2.75-.745-5.286-1.174-8.041-1.628-.219-.025-.657-.073-.85-.395-17.274-5.53-34.348-10.758-51.454-15.88-.898-.27-2.065.36-3.203.488z"/>
    <path fill="#252638" d="M927.998 361c.455-11.526.119-22.88-4.998-33.637-10.283-21.621-35.455-27.422-50.738-11.152-2.482 2.642-5.13 5.13-8.05 7.699 9.835-20.6 36.526-24.862 52.758-8.421 1.856 1.88 3.384 4.084 5.43 6.712 1.258 2.35 2.226 4.093 3.025 5.91 4.655 10.585 6.067 21.527 3.274 32.888z"/>
    <path fill="#CB632B" d="M809.999 622.01c-8.062-3.337-7.01-11.035-7.89-17.45-2.707-19.701.693-38.934 6.07-57.781 1.673-5.862 5.363-11.148 8.474-16.74.344-.041.538.123.503.502-.475 1.357-.917 2.335-1.346 3.349.012.037.066-.018-.225.175-2.701 7.11-5.11 14.028-7.713 21.285-3.865 15.66-4.71 31.226-3.738 46.87.31 4.987 1.83 9.9 2.832 14.832.034-.013-.039-.02.04.308.48.52.88.71 1.374 1.139.684.818 1.274 1.397 1.796 2.359-.105.639-.14.895-.177 1.152"/>
    <path fill="#8C421B" d="M387.055 920.592c-2.73-4.99-6.188-10.123-8.074-15.78-3.874-11.622-7.516-23.392-10.106-35.35-2.405-11.105-3.403-22.522-4.855-33.822-.821-6.39-1.401-12.817-1.895-19.242-.176-2.277.225-4.599.967-6.872 1 6.213 1.394 12.398 1.788 18.584l.249 4.902c.607 4.213 1.174 7.671 1.742 11.129 2.029 23.137 7.854 45.333 16.544 66.821a226 226 0 0 1 3.64 9.63"/>
    <path fill="#292939" d="M862.609 326.095c-.862 5.212-2.468 10.58-3.068 16.057-1.476 13.457-.534 26.485 8.582 37.636 1.302 1.592 1.917 3.746 2.83 6.023-7.992-6.89-11.815-16.375-13.407-26.66-1.752-11.313-.725-22.47 5.063-33.056"/>
    <path fill="#CB5E24" d="M850.154 959.563c-1.812.48-3.62 1.355-5.438 1.375-11.624.129-23.251.012-34.876.097-5.417.04-10.831.353-16.511.227-.265-.315-.256-.352.145-.44 6.006-.56 11.605-1.329 17.218-1.445 13.093-.27 26.193-.227 39.378-.201.087.108.084.387.084.387"/>
    <path fill="#292939" d="M873.89 388.583c1.295.086 2.79.277 4.049.923 9.962 5.116 19.9 4.777 29.878.097 1.182-.554 2.425-.978 4.019-1.39-8.872 9.63-26 9.906-37.945.37"/>
    <path fill="#8C421B" d="M363.104 797.043c-.368-1.701-1.215-3.456-1.031-5.096 2.276-20.272 4.697-40.527 7.127-60.781.044-.369.656-.67 1.372-1.073-1.63 14.92-3.628 29.911-5.94 45.66-.372 4.237-.431 7.717-.49 11.198-.041.468-.082.937-.125 2.179-.306 3.153-.61 5.533-.913 7.913"/>
    <path fill="#E68940" d="M928.933 360.998c2.559-11.36 1.147-22.302-3.508-32.887-.8-1.817-1.767-3.56-2.808-5.68.866.315 2.37.736 2.83 1.67 7.383 15.033 8.749 30.476 2.751 46.321-.158.417-.65.709-1.31.712.466-3.61 1.255-6.872 2.045-10.136"/>
    <path fill="#CA622A" d="M807.791 726.651c.25.259.222.752-.177.992-12.203-3.066-24.001-6.39-35.82-9.643-.908-.25-1.956.009-3.146.026-.208-.004-.623-.006-.623-.006-.326-.108-.592-.3-.908-.797 1.61-.497 3.495-1.368 5.028-.95 11.837 3.233 23.606 6.715 35.646 10.378"/>
    <path fill="#E78745" d="M363.076 797.5c.332-2.837.635-5.217.97-8.018.338.315.889 1.043.916 1.79q.58 16.17 1.01 32.347c.035 1.297-.298 2.604-.776 4.199-.71-5.894-1.104-12.08-1.792-18.564-.314-3.966-.335-7.633-.328-11.755"/>
    <path fill="#442A1D" d="M850.547 959.608c-.393-.045-.39-.324-.382-.698.335-.824.66-1.274.975-1.749-.011-.024-.056.007.213-.067.46-.38.653-.686.788-1-.058-.009-.037.106.227.018.458-.393.653-.698.785-1.012-.061-.009-.038.114.223.017.44-.41.619-.724.744-1.05-.054-.014-.054.097.223.008.5-.395.723-.702 1.194-1.098.673-.63 1.098-1.17 1.783-1.838.444-.452.63-.778.77-1.093-.043.01-.002.091.282-.008.782-.71 1.278-1.32 1.738-1.954-.036-.024-.049.063.221-.011.453-.388.636-.703.767-1.025-.052-.009-.05.096.228.017.498-.388.718-.697 1.18-1.098.64-.4 1.04-.71 1.456-1.003.018.015.055.04.055.04L856 956.708c2.014.206 4.226.434 6.695.941-3.746.855-7.75 1.43-12.147 1.96"/>
    <path fill="#292939" d="M928.7 360.999c-.557 3.263-1.346 6.526-2.172 10.158-.036.369.058.58-.172.697-1.125 1.765-2.022 3.413-2.919 5.06-.267.082-.507.213-.923.396a241 241 0 0 1 5.197-16.092c.287-.219.754-.219.988-.22"/>
    <path fill="#8C421B" d="M395.014 936.608a311 311 0 0 1-7.984-15.262c2.655 4.703 5.292 9.804 7.984 15.262"/>
    <path fill="#E78745" d="M364.52 786.867c-.319-3.397-.26-6.877.084-10.66.288 3.323.29 6.95-.084 10.66"/>
    <path fill="#292939" d="M912.534 388.269c2.06-2.417 4.47-4.805 7.237-7.192-2.059 2.408-4.473 4.815-7.237 7.192"/>
    <path fill="#E78745" d="M367.167 843.876c-.864-3.193-1.431-6.65-1.965-10.455.776 3.165 1.519 6.678 1.965 10.455"/>
    <path fill="#F5E2BF" d="M911.095 553.816c3.351.343 6.703.686 10.463.986.583-.002.757.04 1.193.136.304 1.073.347 2.09.356 3.545-.032.44-.161.55-.428.306-1.439-1.154-2.483-2.408-3.81-2.898-2.505-.924-5.173-1.408-7.774-2.075"/>
    <path fill="#CB632B" d="M820.094 626.892c-2.298-1.05-4.561-2.141-6.86-3.669-.037-.436.198-.689.497-.571 1.625.84 2.95 1.56 4.46 2.409.185.127.63.187.609.211-.02.025-.046.084.108.29.534.54.914.874 1.294 1.208z"/>
    <path fill="#8C421B" d="M402.023 948.627c-.97-1.09-1.986-2.513-2.991-4.31.99 1.075 1.966 2.525 2.99 4.31"/>
    <path fill="#E68940" d="M923.836 376.906c.498-1.64 1.395-3.287 2.627-5.007-.519 1.618-1.374 3.307-2.627 5.007"/>
    <path fill="#8C421B" d="M398.005 941.635c-.954-1.093-1.97-2.518-2.976-4.318.977 1.079 1.946 2.532 2.976 4.318"/>
    <path fill="#292939" d="M920.358 380.92c.199-1.077.678-2.34 1.513-3.687-.173 1.111-.702 2.306-1.513 3.687"/>
    <path fill="#8C421B" d="M406.101 954.646c-.632-.45-1.355-1.207-2.069-2.334.666.428 1.322 1.227 2.069 2.334M404.026 951.646c-.638-.449-1.32-1.213-1.994-2.341.656.433 1.303 1.229 1.994 2.34"/>
    <path fill="#CB632B" d="M810.291 622.136c-.256-.383-.22-.64.18-1.15 1.23.345 2.095.947 2.96 1.548l-.352.38c-.91-.133-1.703-.393-2.788-.778"/>
    <path fill="#8C421B" d="M372.288 723.86c-.12-.489.01-1.147.438-1.837.136.534-.026 1.1-.438 1.836M373.284 719.808c-.096-.693.088-1.595.553-2.72.095.688-.09 1.6-.553 2.72"/>
    <path fill="#292939" d="M863.665 324.061c.086.422-.081 1.015-.537 1.747-.098-.433.093-1.004.537-1.747"/>
    <path fill="#8C421B" d="M399.04 943.682c-.312-.172-.652-.644-1-1.426.32.168.645.648 1 1.426M410.04 960.677c-.313-.177-.654-.655-1.008-1.447.318.172.649.659 1.008 1.447M411.07 962.661c-.342-.163-.679-.631-1.02-1.408q.51.244 1.02 1.408"/>
    <path fill="#292939" d="M872.015 387.321c.426-.088 1.024.09 1.745.57-.443.1-1.007-.102-1.745-.57"/>
    <path fill="#8C421B" d="M412.118 963.719c-.174.064-.504-.1-.959-.518.186-.072.495.108.96.518M371.232 727.974c-.046-.159.127-.444.526-.846.049.162-.128.441-.526.846"/>
    <path fill="#442A1D" d="M905.945 885.953c-1.754 3.331-3.508 6.662-5.641 9.988-.379-.005-.422-.045-.361-.34.263-.858.465-1.42.662-2.044-.006-.06.069-.156.268-.3.408-.421.492-.733.462-1.093.011-.016.02.033.273-.172 1.534-2.217 2.817-4.23 4.159-6.192z"/>
    <path fill="#EDE0C1" d="M887.484 914.902c-.279.103-.45.3-.679.89-.162.3-.526.42-.606.043 1.971-3.095 4.022-5.812 5.964-8.222-.884 1.606-1.66 2.905-2.435 4.204 0 0 .084.073-.182.198-.865 1.045-1.463 1.966-2.062 2.887"/>
    <path fill="#442A1D" d="M890.093 911.848c.41-1.33 1.186-2.629 2.055-4.246.094-.318.09-.352.354-.523a18.6 18.6 0 0 0 1.672-2.956c-.054-.026-.009.085.232-.042.593-.529.945-.931 1.35-1.288l.164.138c-1.82 2.982-3.641 5.965-5.827 8.917M872.89 934.887c-1.526 2.004-3.052 4.009-4.802 5.702.252-1.046.729-1.78 1.404-2.578.444-.24.565-.481.841-.92 1.004-.855 1.73-1.574 2.48-2.27.024.023.078.066.078.066"/>
    <path fill="#EDE0C1" d="M869.294 938.073c-.477.735-.954 1.47-1.585 2.497-.432.296-.632.422-1.036 1.013-.47.686-.66 1.031-.851 1.377 0 0 .144-.002-.128.033-.464.343-.658.652-.85.961h-.098c-.22.001-.63.124-.85-.06 1.652-2.062 3.525-3.941 5.398-5.82"/>
    <path fill="#442A1D" d="M881.045 926.037c-1.154 1.297-2.309 2.594-3.836 3.853-.373-.038-.425-.086-.35-.354.197-.614.319-.961.372-1.38-.069-.072.013.109.265-.014a7.3 7.3 0 0 0 1.097-1.598c0-.06.119-.05.337-.164.6-.426.984-.737 1.554-.871zM886.28 916.212s.363-.12.529-.216c-.593 1.583-1.35 3.263-2.526 4.91-.418-.034-.531-.142-.468-.426.177-.655.291-1.025.35-1.4-.056-.003-.021.103.243-.066.798-1.05 1.33-1.931 1.862-2.832 0-.02.01.03.01.03"/>
    <path fill="#442A1D" d="M883.921 920.926c-.724 1.633-1.505 3.213-2.58 4.952-.42.042-.546-.075-.74-.643.169-.99.407-1.528.592-2.097-.053-.03-.017.086.243-.056.683-.797 1.106-1.451 1.547-2.094.018.011-.008-.024.187-.072.194-.049.582-.152.582-.152zM887.887 914.9c.196-.919.794-1.84 1.667-2.94-.238.86-.751 1.898-1.667 2.94M898.863 897.873c-.39 1.015-.78 2.03-1.552 3.053-.381.009-.423-.031-.38-.327.153-.68.262-1.063.31-1.458-.061-.011-.015.105.228-.016.585-.531.927-.94 1.3-1.324.03.026.094.072.094.072M907.889 881.904c-.422 1.274-.843 2.547-1.604 3.935-.34.114-.459.012-.465-.361.634-1.481 1.274-2.59 1.952-3.666zM875.957 930.943c-.456.936-.912 1.872-1.768 2.841-.4.034-.57-.11-.485-.367.232-.582.38-.91.459-1.295-.067-.058.02.097.272-.02.648-.487 1.044-.859 1.459-1.211.02.019.063.052.063.052M896.95 900.955c-.136.6-.291 1.18-.738 1.867-.292.109-.4.017-.4-.31.118-.69.233-1.053.301-1.43-.048-.013-.008.078.192.024s.583-.211.583-.211z"/>
    <path fill="#442A1D" d="M899.946 895.957c-.152.589-.323 1.157-.79 1.82-.293.096-.357.05-.324-.258.372-.746.71-1.184 1.05-1.623zM908.933 879.944c-.147.589-.295 1.177-.743 1.862-.301.098-.38.037-.378-.285.286-.815.57-1.308.92-1.745zM909.85 877.872c-.073.643-.206 1.234-.628 1.949-.289.123-.423.011-.418-.322.29-.818.576-1.302.861-1.786zM873.873 933.89c-.101.348-.287.625-.728.95-.254.047-.308.004-.276-.26.179-.58.418-.796.75-.907zM864.116 944.078l.616-.184c.052.247-.1.555-.484.987-.23.123-.268.098-.24-.134s.108-.67.108-.67M865.103 943.851q-.1-.308.577-.93.1.309-.577.93M866.097 942.824c-.085-.21.105-.555.55-1.057.078.202-.098.562-.55 1.057M876.859 929.88c-.124.32-.27.614-.66.985-.242.078-.286.045-.224-.208.206-.584.454-.785.81-.853 0 0 .05.048.074.075"/>
    <path fill="#EDE0C1" d="M945.978 721.78c.271-.006.542-.012 1.201.106-1.11 43.917-9.106 86.405-25.495 127.385-.471-.025-.591-.157-.698-.679 2.745-8.518 5.855-16.542 8.134-24.796 5.445-19.719 11.014-39.439 13.057-59.904 1.326-13.285 2.523-26.584 3.791-40.248.013-.87.011-1.367.01-1.864M921.494 849.59c-2.69 7.001-5.54 13.788-8.778 20.662-.388.086-.725-.258-.717-.639 2.996-7.13 5.985-13.881 8.974-20.631.12.132.24.264.52.609M909.75 877.41c-.37.787-.656 1.271-1.013 2.033-.355.77-.64 1.263-.963 2.047-.68 1.398-1.32 2.507-2.014 3.937-1.335 2.335-2.618 4.348-4.253 6.188 2.584-5.662 5.522-11.15 8.543-16.563l.247.233c-.154.607-.309 1.215-.547 2.125M911.879 872.423c-.348.82-.696 1.64-1.313 2.662-.269.2-.433.044-.508-.368.256-1.186.587-1.96 1.133-2.602.373.19.53.249.688.308"/>
    <path fill="#EDE0C1" d="M912.485 870.521c-.004.629-.165 1.075-.466 1.711-.298.132-.455.073-.801-.413.132-.893.453-1.36.773-1.825 0 0 .337.344.494.527"/>
    <path fill="#F5E2BF" d="M940.798 639.589c-19.59 4.825-39.388 6.806-59.409 5.21-19.01-1.516-37.348-5.821-54.517-15.124-.127-.374.136-.685.516-.679 1.026.137 1.747.124 2.307.42 16.124 8.49 33.63 12.22 51.51 13.366 19.164 1.228 38.376.441 57.426-4.454-2.75-14.206-5.473-28.433-8.266-42.646-1.748-8.896-3.602-17.772-5.337-26.716.072-.06.212-.181.212-.181 5.194 23.466 10.387 46.932 15.558 70.804M923.138 558.864a35 35 0 0 1 .984 4.6c-.04.457-.176.586-.497.518-.44-1.695-.56-3.322-.68-4.95 0 0 .13-.11.193-.168"/>
    <path fill="#F5E2BF" d="M924.149 563.856c.383 1.338.698 2.74 1.052 4.536.04.393-.101.515-.442.318-.498-1.684-.656-3.172-.813-4.66z"/>
    <path fill="#F9E1B6" d="M812.102 767.602s.055-.309-.03-.794c-1.36-2.312-2.633-4.138-3.907-5.964 0 0 .058.051.015-.265-.143-.681-.242-1.045.019-1.433 1.393.957 2.797 1.75 3.4 2.947 6.117 12.132 12.98 23.992 17.846 36.617 3.822 9.916 6.094 20.692 7.288 31.285 1.216 10.777.738 21.826.113 32.704-.443 7.706-1.805 15.47-3.737 22.955-4.507 17.456-11.898 33.807-20.783 49.454-1.256 2.213-3.707 3.747-5.54 5.273a59 59 0 0 1 1.412-3.235s-.022-.093.246-.213c1.094-1.678 1.92-3.236 2.748-4.794 0 0-.021-.085.252-.22 1.782-3.357 3.29-6.58 4.797-9.804 0 0-.106-.05.234-.131 21.555-41.238 25.79-83.695 9.542-127.48-2.794-7.53-7.213-14.457-10.882-21.662 0 0-.069.06-.103-.205-.337-.505-.64-.744-.942-.983 0 0 .026-.338-.061-.778-.375-.679-.663-.917-.95-1.156 0 0-.01-.382-.101-.844-.352-.733-.614-1.003-.876-1.274"/>
    <path fill="#BD6224" d="M815.094 773.231c3.71 6.816 8.13 13.743 10.923 21.273 16.249 43.785 12.013 86.242-9.524 127.535.588-2.639 1.299-5.5 2.438-8.178 6.774-15.933 12.425-32.237 13.912-49.574 1.692-19.718 1.081-39.472-4.676-58.524-2.953-9.773-7.924-18.936-11.944-28.39-.51-1.2-.786-2.5-1.129-4.142"/>
    <path fill="#FAEAC3" d="M851.151 957.186c-.325.45-.651.9-1.073 1.615-13.193.35-26.293.306-39.386.576-5.613.116-11.212.886-17.213 1.427-.409-.339-.42-.745-.157-1.61.801-1.323 1.327-2.19 1.853-3.055 0 0-.05-.067.18-.12.395-.362.56-.67.726-.98 0 0-.081-.017.189-.106.652-.45 1.034-.81 1.512-.791.096 1.459.096 2.538.096 3.044z"/>
    <path fill="#F9E5BE" d="M768.855 718.03c.983-.021 2.031-.28 2.94-.03 11.818 3.253 23.616 6.577 35.813 9.89 1.489.4 2.584.792 4.036 1.444.356.26.362.67-.055.671-9.562-2.073-18.76-3.947-27.823-6.33-3.178-.836-3.893.123-4.212 2.671-.664-.388-1.044-.608-1.424-.828-.044-.255-.18-.441-.785-.862-.96-.531-1.545-.76-2.13-.988 0 0 .116.02.05-.345-2.182-2.008-4.296-3.65-6.41-5.292m9.737 4.488s-.113.067 0 0"/>
    <path fill="#BD6224" d="M797.686 953.761c-.382.361-.764.722-1.384 1.199 3.568-5.869 7.374-11.853 11.538-17.826-.092.983-.541 1.954-1.041 3.277-.051.352-.008.398-.295.539-.781 1.04-1.277 1.938-1.757 2.882.016.045.106.011-.197.172-1.494 2.374-2.686 4.586-3.83 6.758.047-.04-.068-.088-.389-.08-1.066 1.053-1.811 2.1-2.577 3.127-.02-.019-.068-.048-.068-.048M778.113 725.899c.397-.161.777.06 1.51.597.503.5.697.597 1.102.86.52.427.872.6 1.226.73 0-.046-.09-.028-.016.26.373.543.673.798 1.128 1.331 2.569 2.67 4.984 5.06 7.56 7.747.408.673.652 1.05.897 1.428-4.475-4.191-8.95-8.382-13.407-12.953M815.894 922.204c-1.16 3.134-2.668 6.358-4.472 9.754a81 81 0 0 1 4.472-9.754M768.648 718.026c2.321 1.647 4.435 3.289 6.62 5.237-2.349-1.313-4.769-2.932-7.216-4.898-.027-.345.388-.343.596-.339M805.998 758.005c-1.663-2.091-3.326-4.183-4.913-6.706q.111-.647.458-.389a81 81 0 0 0 2.002 1.433c.023-.009.073-.01.041.31.631 1.088 1.294 1.856 1.99 2.606.032-.018.054.053.027.371.21.92.446 1.522.61 2.186zM808.113 761.225c1.326 1.445 2.6 3.271 3.892 5.44-1.302-1.457-2.623-3.258-3.892-5.44"/>
    <path fill="#BD6224" d="M801.084 750.93c-1.409-1.359-2.742-2.782-4.008-4.629.067-.423.199-.537.447-.384.937.828 1.626 1.502 2.369 2.394.193.5.41.7.81 1.093.276.627.442.98.609 1.335z"/>
    <path fill="#F9E5BE" d="M791.7 739.068c-.425-.594-.67-.97-.696-1.664 1.481.984 2.745 2.284 3.854 3.72-.156.135-.447.428-.447.428-.844-.756-1.687-1.512-2.71-2.484"/>
    <path fill="#BD6224" d="M810.82 932.136c-.455 1.561-1.282 3.119-2.398 4.84a18.7 18.7 0 0 1 2.398-4.84M797.077 745.935c-.889-.825-1.711-1.708-2.072-2.686.462-.095.886.081.922.253.142.4.317.548.7.886.31.64.479 1.008.648 1.376zM794.834 956.117c-.185.888-.71 1.754-1.506 2.772.209-.83.687-1.811 1.506-2.772M807.838 759.17c.1.364.199.728.346 1.37-.695-.415-1.438-1.108-2.183-2.168-.003-.367.14-.493.436-.407.68.448 1.064.81 1.435 1.177-.013.004-.034.028-.034.028"/>
    <path fill="#F9E5BE" d="m795.89 743.33-.635-.264c-.341-.41-.47-.733-.721-1.285-.123-.229.168-.522.588-.452.536.713.653 1.357.769 2.001"/>
    <path fill="#BD6224" d="M775.312 724.008c.488-.112 1.073.117 1.858.612-.454.087-1.107-.093-1.858-.612M813.142 769.989c.224-.03.512.208.822.73-.238.035-.498-.213-.822-.73M795.84 955.144c.075.204-.09.513-.511.908-.08-.21.094-.507.51-.908M812.146 767.882c.218-.01.48.26.76.816-.226.012-.47-.262-.76-.816M814.163 771.942q.344-.072.911.712-.343.073-.911-.712"/>
    <path fill="#F5E2BF" d="M820.536 626.868c-.714-.432-1.094-.766-1.25-1.413 2.724.97 5.223 2.252 7.722 3.535 0 0-.263.311-.403.463-2.004-.727-3.87-1.607-6.069-2.585"/>
    <path fill="#FEDFAC" d="M795.927 743.502c-.152-.816-.269-1.46-.65-2.31-1.528-1.504-2.792-2.804-4.436-4.084-2.794-2.37-5.209-4.761-7.843-7.73-.526-.824-.83-1.072-1.136-1.32 0 0 .09-.018-.05-.25-.511-.389-.883-.547-1.254-.705-.238-.01-.432-.107-.651-.44-.034-2.865.68-3.824 3.859-2.988 9.064 2.383 18.261 4.257 28.09 6.326.86-.011 1.037-.018 1.215-.024 0 0 .485.082.92.449 10.943 2.1 21.408 4.958 31.964 5.345 25.645.94 51.295.625 76.337-6.576 7.743-2.227 15.767-3.48 23.662-5.18-1.254 13.293-2.45 26.592-3.777 39.877-2.043 20.465-7.612 40.185-13.057 59.904-2.28 8.254-5.39 16.278-8.134 24.796-3.002 7.14-5.99 13.89-8.987 21.021-.328.847-.65 1.313-.996 2.075-.358 1.07-.689 1.843-1.028 2.952-2.946 5.824-5.884 11.313-8.721 17.18.101.377.092.328-.21.42-.325.448-.348.804-.37 1.16 0 0-.075.097-.435.078-1.244 1.91-2.129 3.84-3.013 5.768 0 0-.046-.116-.304-.008-.443.713-.63 1.317-.817 1.922 0 0-.04-.09-.365-.062-.742 1.056-1.158 2.083-1.574 3.11 0 0-.046-.11-.375-.087-.736 1.06-1.145 2.094-1.553 3.129 0 0 .004.034.019.044-2.036 2.729-4.087 5.446-6.058 8.541.08.377.07.326-.308.323-.835 1.006-1.291 2.015-1.747 3.025 0 0-.035-.106-.27.005-.457.666-.678 1.221-.899 1.776 0 0 .026.035-.326.076-.726.755-1.1 1.47-1.473 2.184 0 0-.036-.116-.374-.106-.922 1.132-1.506 2.254-2.09 3.376 0 0-.118-.01-.47-.024-.567.589-.782 1.192-.998 1.795 0 0-.082-.18-.383-.145-1.093 1.39-1.886 2.745-2.679 4.1 0 0-.086-.156-.396-.13-1.45 1.729-2.591 3.432-3.732 5.136.003.304-.118.544-.562.785-2.071 1.942-3.944 3.82-5.597 5.883.22.184.142.621.096.838-.445.526-.845.834-1.76 1.325-.737.483-.96.785-1.183 1.087 0 0-.002-.105-.206 0-.396.405-.589.704-.781 1.003 0 0 .013-.087-.297-.062-.766.7-1.221 1.376-1.676 2.052 0 0-.041-.08-.256.035-.4.44-.587.767-.772 1.094-.425.54-.85 1.081-1.804 1.796-.75.482-.97.792-1.19 1.102 0 0 0-.11-.215-.01a4.6 4.6 0 0 0-.736 1.06s-.023-.123-.237-.04c-.4.396-.587.711-.774 1.026 0 0-.02-.115-.234-.033-.404.387-.595.694-.786 1 0 0 .045-.03.056-.006-17.64.025-35.292.025-53.262.025 0-.506 0-1.585-.096-3.044-.096-.38-.049-.352.348-.298 1.105-1.02 1.813-2.095 2.522-3.17 0 0 .115.047.437.04 1.47-2.295 2.617-4.583 3.764-6.87 0 0-.09.033.277.017.799-1.028 1.23-2.04 1.66-3.052 0 0-.042-.046-.055-.076 1.884-1.878 4.335-3.412 5.591-5.625 8.885-15.647 16.276-31.998 20.783-49.454 1.932-7.485 3.294-15.25 3.737-22.955.625-10.878 1.103-21.927-.113-32.704-1.194-10.593-3.466-21.369-7.288-31.285-4.866-12.625-11.73-24.485-17.846-36.617-.603-1.197-2.007-1.99-3.4-2.947-.361.024-.34 0-.292-.376-.726-1.403-1.502-2.43-2.277-3.458 0 0-.022-.071.082-.398-.628-1.078-1.361-1.829-2.094-2.58 0 0-.05 0 .064-.37-.954-1.193-2.022-2.013-3.09-2.834-.29-.119-.507-.319-.427-1.01-1.08-1.608-2.379-2.806-3.678-4.004-.243-.066-.418-.214-.56-.614"/>
    <path fill="#F7DFB7" d="M945.968 723.644c-7.909 2.07-15.933 3.324-23.676 5.55-25.042 7.202-50.692 7.516-76.337 6.577-10.556-.387-21.021-3.245-31.724-5.29 15.094 1.049 30.359 2.993 45.679 3.634 25.753 1.08 50.95-3.111 75.74-9.924 3.15-.866 6.342-1.58 9.92-2.388.41.474.41.971.398 1.84M812.969 729.742c-.076.241-.253.248-.697.258-.266.004-.272-.407-.277-.611.287-.098.58.01.974.353"/>
    <path fill="#FEDFAC" d="M827.388 628.996c-2.88-1.289-5.378-2.572-8.256-3.748-.378.108-.353.049-.329-.18-.25-.197-.523-.165-.796-.134a210 210 0 0 0-4.276-2.282c-1.165-.72-2.03-1.32-3.192-2.05-.885-.706-1.475-1.285-2.338-2.365-.607-.736-.94-.971-1.274-1.206 0 0 .073.008.08-.426-.659-8.009-2.174-15.626-1.8-23.149.64-12.85 2.466-25.64 4.07-38.692 1.726-4.44 3.257-8.618 4.589-12.858.826-2.629 1.35-5.353 2.01-8.034 0 0-.054.055.284.036 2.323-2.064 4.323-2.424 7.227-1.378 8.195 2.951 16.49 5.686 24.888 7.99 7.86 2.156 15.902 3.652 23.863 5.438 0 0 .438.048.885.364 2.974.76 5.5 1.207 8.027 1.653 0 0-.053.023.156.297 10.11 2.06 20.013 3.846 29.916 5.631 0 0-.05-.031-.039-.06 2.613.64 5.281 1.124 7.787 2.048 1.326.49 2.37 1.744 3.809 2.898.386 1.87.506 3.498.946 5.193.478 1.556.636 3.044 1.063 4.788a934 934 0 0 1 5.677 26.912c2.793 14.213 5.516 28.44 8.266 42.646-19.05 4.895-38.262 5.682-57.426 4.454-17.88-1.145-35.386-4.876-51.51-13.367-.56-.295-1.281-.282-2.307-.419"/>
    <path fill="#F8E2BC" d="M871.945 545.636c-7.768-1.464-15.81-2.96-23.67-5.117-8.397-2.303-16.693-5.038-24.888-7.989-2.904-1.046-4.904-.686-7.24 1.341.092-.995.534-1.973 1.106-3.248 1.173-.507 2.34-1.136 3.238-.867 17.106 5.122 34.18 10.35 51.454 15.88"/>
    <path fill="#F5E2BF" d="M910.895 553.553c-9.676-1.435-19.578-3.22-29.685-5.31 7.758 1.145 15.717 2.6 23.681 4.033 1.92.346 3.851.62 6.004 1.277M880.836 547.659c-2.312-.13-4.839-.576-7.594-1.313 2.308.139 4.844.568 7.594 1.313"/>
    <path fill="#FCEFCD" d="M809 555c-1.327 12.816-3.152 25.607-3.792 38.456-.375 7.523 1.14 15.14 1.764 23.163-1.007-4.5-2.528-9.412-2.838-14.399-.972-15.644-.127-31.21 3.971-46.874.427-.344.895-.346.895-.346"/>
    <path fill="#F8E2BC" d="M809.278 554.764c-.278.236-.746.238-.98.242a380 380 0 0 1 7.287-20.941c-.369 2.488-.893 5.212-1.719 7.841-1.332 4.24-2.863 8.418-4.588 12.858"/>
    <path fill="#FCEFCD" d="M807.006 617.36c.255-.094.588.14 1.101.637-.22.072-.621-.117-1.1-.637"/>
    <path fill="#FAEAC3" d="M858.372 950.038c.17-.577.626-1.252 1.428-1.93-.15.61-.646 1.22-1.428 1.93M852.368 956.112c-.077-.227.11-.542.571-.93.082.232-.113.537-.571.93M851.353 957.094q-.117-.35.575-.92.117.35-.575.92M853.376 955.117c-.087-.223.087-.543.529-.95.09.226-.089.54-.529.95M854.343 954.075q-.087-.331.665-.925.086.333-.665.925M857.32 951.139q-.112-.3.556-.978.11.3-.557.978M860.331 948.073c-.078-.225.115-.524.563-.92.073.217-.11.532-.563.92M861.326 947.065c-.055-.223.168-.525.665-.916.053.22-.167.528-.665.916"/>
    <path fill="#F5E2BF" d="M818.191 625.06c.09-.157.362-.189.633-.016-.004.204-.448.144-.633.017"/>
    <path fill="#EDE0C1" d="M897.47 899.125c.64-1.808 1.525-3.737 2.775-5.587.163.643-.039 1.205-.302 2.063-.4.734-.74 1.172-1.141 1.892-.406.692-.748 1.1-1.333 1.632M900.873 893.257c-.177-.213-.154-.57.16-1.002.332.27.248.58-.16 1.002M892.502 907.079c.144-.864.553-1.899 1.343-2.932-.104.922-.592 1.841-1.343 2.932M894.406 904.081c.176-.9.592-1.927 1.381-2.97.258.348.143.711-.029 1.355-.407.684-.76 1.086-1.352 1.615M870.333 937.09a25.8 25.8 0 0 1 3.52-4.942c.23.36.083.687-.149 1.27-.417.366-.656.581-.86 1.14-.782.959-1.507 1.678-2.51 2.533M878.93 926.38a10 10 0 0 1 1.925-3.232c.153.56-.085 1.098-.44 1.91-.5.585-.884.896-1.485 1.322M874.435 932.103a15 15 0 0 1 2.495-3.912c.248.384.126.73-.07 1.345-.43.336-.68.537-.904 1.102-.477.605-.873.977-1.52 1.465M877.496 928.142c-.036-.48.18-1.083.746-1.612.07.545-.212 1.017-.746 1.612M884.408 919.014c.192-.84.648-1.85 1.483-2.836-.153.905-.685 1.786-1.483 2.836M883.17 920.916c.026-.507.247-1.062.759-1.724.177.263.063.633-.114 1.288-.063.284-.45.387-.645.436M881.436 923.082c.114-.572.487-1.287 1.195-2.053-.09.602-.512 1.256-1.195 2.053M896.305 901.106c-.013-.55.174-1.155.68-1.857.208.287.099.67-.054 1.35-.043.296-.426.453-.626.507"/>
    <path fill="#FEDFAC" d="M778.535 722.552c-.056.034.057-.033 0 0"/>
    <path fill="#FAEAC3" d="M804.55 944.004a38.6 38.6 0 0 1-3.508 6.751c.822-2.165 2.014-4.377 3.508-6.75M800.331 950.682c-.388 1.067-1.096 2.141-2.18 3.18.369-1.08 1.114-2.127 2.18-3.18"/>
    <path fill="#F9E1B6" d="M806.504 940.95c-.144.871-.575 1.883-1.39 2.866.113-.928.609-1.827 1.39-2.866"/>
    <path fill="#F9E5BE" d="M781.935 728.346c.232-.04.537.208.908.754-.235.044-.535-.21-.908-.754M780.725 727.356c.204-.095.576.063 1.086.498-.214.103-.567-.071-1.086-.498"/>
    <path fill="#F9E1B6" d="M800.702 749.404a10 10 0 0 1 2.957 2.568c-.72-.043-1.302-.467-2.116-1.062-.399-.525-.565-.88-.84-1.506M805.603 755.63c.802.71 1.578 1.737 2.318 3.136-.42.01-.804-.353-1.412-.864-.46-.75-.697-1.351-.906-2.272M803.586 752.653c.765.432 1.498 1.183 2.094 2.28-.8-.424-1.463-1.192-2.094-2.28"/>
    <path fill="#F9E5BE" d="M796.628 744.388c1.158.926 2.458 2.124 3.484 3.513-.963-.482-1.652-1.156-2.59-1.984-.416-.521-.585-.89-.894-1.53"/>
  </g>
  <text fill="#333" filter="url(#textShadow)" style="white-space: pre; font-family: 'Segoe UI', Inter, Arial, sans-serif; font-size: 28px; font-weight: 600; letter-spacing: 0.2px; text-rendering: geometricPrecision;" x="108.83" y="51.107" transform="matrix(2.746173, 0, 0, 2.5, -190, -65)">Squirrels Docs</text>
</svg>