<?xml version="1.0" encoding="utf-8"?>
<svg xmlns="http://www.w3.org/2000/svg" viewBox="0 0 500 500">
  <g transform="matrix(0.608669, 0, 0, 0.647556, -32.552945, -88.937768)" style="">
    <path d="M 0 0 C 0.811 0.003 1.621 0.007 2.456 0.01 C 14.263 0.069 25.968 0.191 37.625 2.25 C 38.486 2.401 39.346 2.551 40.233 2.707 C 81.367 10.21 120.443 28.266 151.625 56.25 C 152.227 56.785 152.829 57.32 153.449 57.871 C 172.314 74.713 186.909 93.847 198.625 116.25 C 198.961 116.884 199.297 117.518 199.643 118.171 C 209.72 137.441 216.363 158.782 219.625 180.25 C 219.796 181.303 219.796 181.303 219.971 182.378 C 225.321 216.187 220.69 250.804 210.625 283.25 C 210.358 284.128 210.092 285.005 209.817 285.91 C 199.825 318.313 181.871 347.067 160.875 373.387 C 158.59 376.218 158.59 376.218 156.625 379.25 C 157.147 378.705 157.669 378.159 158.207 377.598 C 164.005 371.658 170.148 366.428 176.625 361.25 C 177.811 360.275 178.996 359.299 180.18 358.32 C 189.973 350.246 200.046 342.592 210.237 335.028 C 212.45 333.38 214.655 331.721 216.855 330.055 C 227.25 322.189 237.777 314.482 248.625 307.25 C 248.219 305.625 247.813 304.001 247.406 302.376 C 247.046 300.934 246.687 299.492 246.33 298.049 C 245.447 294.488 244.54 290.939 243.574 287.398 C 234.022 251.773 235.376 215.311 252.625 182.25 C 254.604 178.927 256.651 175.642 258.868 172.472 C 261.361 168.679 261.996 166.06 261.145 161.598 C 260.887 160.436 260.887 160.436 260.625 159.25 C 260.239 157.188 259.853 155.125 259.469 153.063 C 259.023 150.791 258.575 148.52 258.125 146.25 C 255.732 134.187 254.416 122.993 254.438 110.688 C 254.438 110.004 254.439 109.321 254.44 108.617 C 254.604 53.445 254.604 53.445 271.914 34.715 C 279.871 27.902 288.33 26.463 298.514 27.028 C 304.817 27.691 310.75 29.979 316.625 32.25 C 317.297 32.507 317.969 32.764 318.662 33.029 C 328.769 36.974 337.752 42.034 346.625 48.25 C 347.607 48.925 348.59 49.601 349.602 50.297 C 362.411 59.481 374.246 70.574 383.625 83.25 C 384.029 83.795 384.433 84.34 384.85 84.902 C 400.625 106.292 400.625 106.292 400.625 110.25 C 401.422 110.232 402.219 110.214 403.04 110.195 C 410.785 110.095 418.168 110.595 425.813 111.813 C 426.924 111.988 428.022 112.297 429.181 112.345 C 499.792 115.241 517.935 128.97 540.642 165.664 C 549.267 179.602 545.599 214.313 581.896 272.866 C 593.348 291.34 559.389 397.331 501.941 385.414 C 485.995 382.106 469.752 384.449 453.625 382.25 C 452.634 382.116 451.644 381.982 450.623 381.844 C 432.632 379.308 413.443 375.277 396.625 368.25 C 396.519 368.886 396.414 369.521 396.305 370.176 C 395.572 373.489 394.584 376.653 393.555 379.883 C 388.814 394.923 386.386 409.088 386 424.875 C 385.952 425.978 385.905 427.081 385.856 428.217 C 385.821 433.842 386.154 437.429 389.879 441.797 C 391.095 442.982 392.341 444.139 393.625 445.25 C 394.41 445.944 395.195 446.637 396.004 447.352 C 407.501 455.373 420.042 459.442 433.625 462.25 C 434.468 462.43 435.312 462.609 436.181 462.794 C 442.658 464.086 448.84 464.566 455.438 464.5 C 456.422 464.495 457.406 464.489 458.42 464.484 C 471.146 464.324 483.774 463.167 496.344 461.203 C 513.107 458.776 532.688 457.725 548.625 464.25 C 549.534 464.612 550.443 464.974 551.379 465.348 C 565.322 471.628 575.893 483.164 581.625 497.25 C 584.726 505.937 584.555 513.586 580.809 521.961 C 577.667 528.037 573.699 531.52 567.555 534.328 C 556.886 537.685 547.403 534.771 537.625 530.25 C 536.082 529.552 536.082 529.552 534.508 528.84 C 532.653 527.996 530.805 527.14 528.965 526.266 C 515.716 520.515 498.638 524.603 485.181 527.677 C 450.338 535.491 415.959 537.657 381.625 526.25 C 380.635 525.59 379.645 524.93 378.625 524.25 C 377.747 537.89 377.747 537.89 381.531 550.594 C 383.211 552.274 384.947 553.899 386.727 555.473 C 401.317 568.474 409.498 593.27 410.836 612.249 C 411.377 624.852 411.09 637.059 407.625 649.25 C 407.296 650.463 406.968 651.676 406.629 652.926 C 401.697 669.36 392.682 684.007 380.07 695.68 C 378.475 697.413 377.637 699.135 376.625 701.25 C 378.11 701.234 378.11 701.234 379.625 701.218 C 452.886 700.514 452.886 700.514 474.557 720.839 C 482.301 728.599 487.834 738.544 488.063 749.625 C 487.942 754.672 487.552 758.49 484.504 762.598 C 475.925 770.142 464.087 770.402 453.276 770.39 C 452.366 770.393 451.457 770.396 450.52 770.399 C 447.489 770.408 444.458 770.41 441.427 770.411 C 439.247 770.416 437.066 770.421 434.886 770.426 C 428.97 770.439 423.053 770.446 417.137 770.45 C 413.432 770.453 409.726 770.457 406.021 770.462 C 393.733 770.476 381.446 770.485 369.159 770.49 C 368.498 770.49 367.836 770.49 367.155 770.49 C 366.492 770.49 365.83 770.491 365.147 770.491 C 353.789 770.495 342.431 770.515 331.073 770.54 C 320.714 770.562 310.355 770.572 299.996 770.573 C 293.824 770.574 287.653 770.58 281.481 770.598 C 275.661 770.614 269.841 770.616 264.02 770.608 C 261.903 770.607 259.786 770.611 257.669 770.621 C 238.873 770.705 220.221 769.119 201.938 764.563 C 200.911 764.316 199.885 764.069 198.828 763.814 C 191.015 761.837 183.628 759.152 176.343 755.702 C 171.311 753.437 167.867 753.084 162.427 753.885 C 142.551 756.477 121.314 754.011 101.625 751.25 C 100.384 751.09 100.384 751.09 99.119 750.926 C 56.028 745.342 12.58 726.438 -20.375 698.25 C -21.531 697.279 -22.687 696.309 -23.844 695.34 C -44.741 677.74 -61.142 657.253 -72.375 632.25 C -72.837 631.232 -72.837 631.232 -73.308 630.193 C -76.796 622.401 -79.78 614.524 -82.125 606.313 C -82.312 605.671 -82.498 605.029 -82.69 604.368 C -86.532 590.106 -87.902 575.846 -87.75 561.125 C -87.746 560.326 -87.741 559.527 -87.737 558.704 C -87.325 493.269 -56.969 437.198 -21.329 384.147 C -9.194 366.129 -9.194 366.129 1.75 347.375 C 2.51 345.974 2.51 345.974 3.285 344.545 C 8.672 334.484 13.659 324.307 16.625 313.25 C 15.933 314.358 15.933 314.358 15.227 315.488 C 10.905 322.21 6.416 327.977 0.922 333.777 C -1.404 336.217 -1.404 336.217 -3.453 338.863 C -20.322 359.812 -50.967 373.664 -77.176 376.953 C -95.56 378.662 -114.579 378.478 -132.375 373.25 C -133.091 373.041 -133.807 372.832 -134.544 372.617 C -156.612 365.93 -175.716 355.198 -192.375 339.25 C -193.11 338.578 -193.845 337.907 -194.602 337.215 C -212.591 320.211 -223.484 297.502 -230.25 274 C -230.441 273.353 -230.632 272.707 -230.829 272.041 C -234.306 259.168 -234.756 245.753 -234.687 232.5 C -234.686 231.76 -234.684 231.02 -234.682 230.258 C -234.633 218.36 -233.879 206.901 -231.375 195.25 C -231.126 194.018 -231.126 194.018 -230.871 192.762 C -222.732 153.033 -204.509 115.278 -178.375 84.25 C -177.936 83.722 -177.497 83.194 -177.044 82.65 C -167.107 70.718 -156.709 59.772 -144.375 50.25 C -143.84 49.833 -143.304 49.416 -142.752 48.986 C -101.761 17.24 -51.863 -0.362 0 0 Z" fill="#CD753C" stroke="#000000" stroke-width="6" stroke-linejoin="round" stroke-linecap="round" transform="translate(289.375,137.75)"/>
    <path d="M0 0 C0.81059875 0.00343414 1.62119751 0.00686829 2.45635986 0.01040649 C14.26300902 0.06896459 25.96807664 0.19051755 37.625 2.25 C38.48561035 2.40065918 39.3462207 2.55131836 40.23291016 2.70654297 C81.36668377 10.20965464 120.44314471 28.26628371 151.625 56.25 C152.22699219 56.78496094 152.82898438 57.31992188 153.44921875 57.87109375 C172.31351774 74.71282873 186.90887524 93.84653677 198.625 116.25 C198.96096191 116.88389648 199.29692383 117.51779297 199.64306641 118.17089844 C209.72009926 137.4405829 216.36341088 158.78213668 219.625 180.25 C219.79636475 181.3033252 219.79636475 181.3033252 219.97119141 182.37792969 C225.32080459 216.18748503 220.68981554 250.80378263 210.625 283.25 C210.35848633 284.12769043 210.09197266 285.00538086 209.81738281 285.90966797 C201.3243844 313.45063961 186.99514088 339.3305953 169.625 362.25 C169.19364746 362.82411621 168.76229492 363.39823242 168.31787109 363.98974609 C159.88317813 375.16517536 150.63224863 385.34476675 140.64086914 395.14379883 C122.58917856 412.89438051 108.36262994 433.8432692 96.625 456.25 C96.04709717 457.35021484 96.04709717 457.35021484 95.45751953 458.47265625 C90.56151796 467.86344547 86.16470675 477.25415039 82.625 487.25 C82.14033301 488.56547676 81.65459781 489.8805603 81.16796875 491.1953125 C77.42906918 501.40561316 74.34076086 511.72383089 71.625 522.25 C71.34245361 523.3332959 71.34245361 523.3332959 71.05419922 524.43847656 C70.5014571 526.58077543 69.9660922 528.72662527 69.4375 530.875 C68.98310547 532.71964844 68.98310547 532.71964844 68.51953125 534.6015625 C65.49680512 549.25536007 65.22010249 563.84341893 65.25 578.75 C65.25087616 579.81581299 65.25175232 580.88162598 65.25265503 581.97973633 C65.29460349 597.43186587 65.70780462 612.22104568 69.625 627.25 C69.86637695 628.22114746 70.10775391 629.19229492 70.35644531 630.19287109 C81.89361564 675.79734626 109.47835593 716.53631409 149.84472656 741.62988281 C155.64856702 745.0602352 161.57000545 748.28366429 167.625 751.25 C167.625 751.91 167.625 752.57 167.625 753.25 C146.03569174 756.61738896 123.09723472 754.26154887 101.625 751.25 C100.38435791 751.08975342 100.38435791 751.08975342 99.11865234 750.92626953 C56.02781993 745.34160962 12.58026385 726.43785911 -20.375 698.25 C-21.53075952 697.27936359 -22.6870394 696.30934655 -23.84375 695.33984375 C-44.74069252 677.74035415 -61.14215617 657.25311771 -72.375 632.25 C-72.83664551 631.23172119 -72.83664551 631.23172119 -73.30761719 630.19287109 C-76.79631145 622.40072482 -79.7796199 614.52449368 -82.125 606.3125 C-82.31151123 605.67070801 -82.49802246 605.02891602 -82.69018555 604.36767578 C-86.53229307 590.1058554 -87.90243102 575.84628206 -87.75 561.125 C-87.74567963 560.32595245 -87.74135925 559.52690491 -87.73690796 558.7036438 C-87.3245683 493.26851252 -56.96866319 437.19785218 -21.32861328 384.14697266 C-9.19415216 366.12905487 -9.19415216 366.12905487 1.75 347.375 C2.50966064 345.97399048 2.50966064 345.97399048 3.28466797 344.54467773 C8.67183592 334.48398233 13.65944508 324.30728333 16.625 313.25 C15.93277344 314.35794922 15.93277344 314.35794922 15.2265625 315.48828125 C10.90507174 322.20965127 6.41593186 327.97708945 0.921875 333.77734375 C-1.40363622 336.21746551 -1.40363622 336.21746551 -3.453125 338.86328125 C-20.32218949 359.812465 -50.96730039 373.66378955 -77.17626953 376.95263672 C-95.55981624 378.66162465 -114.57893129 378.47824621 -132.375 373.25 C-133.09075195 373.04101074 -133.80650391 372.83202148 -134.54394531 372.61669922 C-156.61202306 365.93016182 -175.71617024 355.19812883 -192.375 339.25 C-193.10976562 338.57839844 -193.84453125 337.90679687 -194.6015625 337.21484375 C-212.59065906 320.21101573 -223.48389317 297.50249982 -230.25 274 C-230.44094238 273.35337402 -230.63188477 272.70674805 -230.82861328 272.04052734 C-234.30602323 259.16812045 -234.75598321 245.75290782 -234.6875 232.5 C-234.68567719 231.76020905 -234.68385437 231.02041809 -234.68197632 230.25820923 C-234.63283952 218.35958097 -233.87878995 206.90149496 -231.375 195.25 C-231.12556641 194.01830078 -231.12556641 194.01830078 -230.87109375 192.76171875 C-222.73236735 153.03267654 -204.50891422 115.27808361 -178.375 84.25 C-177.93575195 83.72196777 -177.49650391 83.19393555 -177.04394531 82.64990234 C-167.10725239 70.71847045 -156.70942882 59.77159708 -144.375 50.25 C-143.83955566 49.83282715 -143.30411133 49.4156543 -142.75244141 48.98583984 C-101.76131212 17.2397687 -51.86327848 -0.36189905 0 0 Z " fill="#8D471D" transform="translate(289.375,137.75)"/>
    <path d="M0 0 C0.63196289 0.19263428 1.26392578 0.38526855 1.91503906 0.58374023 C31.43525783 9.521283 58.46920477 10.62605395 89 6 C90.46351023 5.7849422 91.9270487 5.57007641 93.390625 5.35546875 C96.26418858 4.92319025 99.13340273 4.47589994 102 4 C102.15494295 11.09048447 101.572295 17.90565124 100.6875 24.9375 C100.54924805 26.04432129 100.41099609 27.15114258 100.26855469 28.29150391 C99.85651062 31.52919412 99.4314578 34.76484529 99 38 C98.89316895 38.81710449 98.78633789 39.63420898 98.67626953 40.47607422 C92.93309574 83.11135945 76.4093133 124.85159729 50.9375 159.5 C50.49140381 160.11061279 50.04530762 160.72122559 49.58569336 161.3503418 C48.65293167 162.57912865 47.68871405 163.78452272 46.69824219 164.96728516 C45.42961984 166.48576556 44.23246237 168.06446682 43.07519531 169.66943359 C39.5052583 174.04705918 36.4501442 177.06917248 30.72924805 177.79589844 C25.76518286 178.10381222 20.83656376 177.87553628 15.875 177.625 C14.1381497 177.57475517 12.40115889 177.52914257 10.6640625 177.48828125 C6.43919486 177.37891139 2.22116998 177.20688889 -2 177 C-0.52341743 173.03778257 0.83028928 170.94377846 4 168.125 C21.57989368 151.02558572 30.86349635 125.61632059 31.29272461 101.41015625 C31.44300428 76.92013571 25.34349516 53.61891069 10 34 C8.1443814 32.2912107 6.27025715 30.60221667 4.375 28.9375 C-0.25590476 24.2631805 -0.56965355 20.34089929 -0.68115234 14.03540039 C-0.5994115 9.34383127 -0.38317933 4.67655631 0 0 Z " fill="#FEDDA5" transform="translate(668,662)"/>
    <path d="M 102 4 C 102.15494295 11.09048447 101.572295 17.90565124 100.6875 24.9375 C 100.54924805 26.04432129 100.41099609 27.15114258 100.26855469 28.29150391 C 99.85651062 31.52919412 99.4314578 34.76484529 99 38 C 98.89316895 38.81710449 98.78633789 39.63420898 98.67626953 40.47607422 C 92.93309574 83.11135945 76.4093133 124.85159729 50.9375 159.5 C 50.49140381 160.11061279 50.04530762 160.72122559 49.58569336 161.3503418 C 48.65293167 162.57912865 47.68871405 163.78452272 46.69824219 164.96728516 C 45.42961984 166.48576556 44.23246237 168.06446682 43.07519531 169.66943359 C 39.5052583 174.04705918 36.4501442 177.06917248 30.72924805 177.79589844 C 25.76518286 178.10381222 20.83656376 177.87553628 15.875 177.625 C 14.1381497 177.57475517 12.40115889 177.52914257 10.6640625 177.48828125 C 6.43919486 177.37891139 2.22116998 177.20688889 -2 177" fill="none" stroke="#000000" stroke-width="6" stroke-linecap="round" stroke-linejoin="round" transform="translate(668,662)"/>
    <path d="M0 0 C5.58252572 1.34263277 11.13469735 2.73048198 16.640625 4.359375 C35.03406924 9.72904282 53.93388294 13.08308229 73 15 C72.34 15.33 71.68 15.66 71 16 C71.29132813 17.02609375 71.58265625 18.0521875 71.8828125 19.109375 C77.92741575 41.34122084 81.72054828 64.66897229 83.67578125 87.62109375 C83.95046381 90.48374929 84.36835356 93.19808117 85 96 C54.73056552 98.93776141 23.39960769 97.59861984 -2 79 C-10.84094731 71.29807045 -10.84094731 71.29807045 -11.16113281 66.671875 C-11.49709704 43.29501558 -9.21505246 21.73694194 0 0 Z " fill="#FEDDA6" transform="translate(686,506)"/>
    <path d="M 73 15 C 72.34 15.33 71.68 15.66 71 16 C 71.29132813 17.02609375 71.58265625 18.0521875 71.8828125 19.109375 C 77.92741575 41.34122084 81.72054828 64.66897229 83.67578125 87.62109375 C 83.95046381 90.48374929 84.36835356 93.19808117 85 96" fill="none" stroke="#000000" stroke-width="6" stroke-linecap="round" stroke-linejoin="round" transform="translate(686,506)"/>
    <path d="M0 0 C2.04837292 1.58283362 4.05742944 3.21641934 6.0546875 4.86328125 C6.3846875 -1.73671875 6.7146875 -8.33671875 7.0546875 -15.13671875 C7.3846875 -15.13671875 7.7146875 -15.13671875 8.0546875 -15.13671875 C8.0326123 -14.49758545 8.01053711 -13.85845215 7.98779297 -13.19995117 C7.3248745 -0.55165203 7.3248745 -0.55165203 10.9609375 11.20703125 C12.64080188 12.88689563 14.37628464 14.51252973 16.15625 16.0859375 C30.74699584 29.08685665 38.92793873 53.88322537 40.26611328 72.86181641 C40.80652279 85.46556081 40.51967177 97.67270905 37.0546875 109.86328125 C36.56162109 111.68279297 36.56162109 111.68279297 36.05859375 113.5390625 C30.84958228 130.89642597 21.11633423 145.3968488 8.0546875 157.86328125 C7.65507813 158.35570312 7.25546875 158.848125 6.84375 159.35546875 C4.02328485 161.732542 0.66195603 162.79510922 -2.7578125 164.05078125 C-3.45712891 164.32341797 -4.15644531 164.59605469 -4.87695312 164.87695312 C-9.04768438 166.43366198 -12.42468125 167.18263511 -16.9453125 166.86328125 C-16.9453125 166.20328125 -16.9453125 165.54328125 -16.9453125 164.86328125 C-16.2853125 164.86328125 -15.6253125 164.86328125 -14.9453125 164.86328125 C-14.71070313 164.33347656 -14.47609375 163.80367187 -14.234375 163.2578125 C-12.89349555 160.76702733 -11.30919024 158.56142946 -9.61987305 156.296875 C8.70426058 131.67650984 17.27494897 102.76376645 13.55859375 72.10546875 C9.97017206 47.83498413 -3.00184962 28.32214516 -22.015625 13.21875 C-41.43596432 -0.77423213 -66.02375218 -3.55293129 -89.17919922 -5.49047852 C-90.0198291 -5.56194092 -90.86045898 -5.63340332 -91.7265625 -5.70703125 C-92.8412793 -5.79621826 -92.8412793 -5.79621826 -93.97851562 -5.88720703 C-95.9453125 -6.13671875 -95.9453125 -6.13671875 -98.9453125 -7.13671875 C-98.9453125 -7.79671875 -98.9453125 -8.45671875 -98.9453125 -9.13671875 C-67.22784706 -26.96865784 -28.55502723 -20.71564973 0 0 Z " fill="#B15B25" transform="translate(659.9453125,677.13671875)"/>
    <path d="M0 0 C8.82240029 4.98657408 13.94064727 10.96780002 17.625 20.4375 C20.22400291 30.03891203 20.04441836 42.8625354 16.0859375 51.97265625 C11.84320615 59.13084738 6.26870708 65.05662956 -1.375 68.4375 C-9.28617241 70.35338525 -18.22297014 70.7670813 -25.375 66.4375 C-34.88832769 59.23664274 -41.16212639 51.29095478 -43.375 39.4375 C-44.44147219 28.52442154 -42.60056927 18.47337291 -36.109375 9.5078125 C-26.57038844 -1.8788156 -14.06726186 -6.60119942 0 0 Z " fill="#333233" transform="translate(763.375,348.5625)"/>
  </g>
</svg>